# xmcd CD database file
#
# Track frame offsets:
#	183
#	9040
#	19910
#	30995
#	41308
#	53023
#	63753
#	74935
#	86468
#	97843
#	107503
#	116435
#	126198
#	136183
#	146030
#	157095
#	169013
#	179213
#
# Disc length: 2505 seconds
#
# Revision: 2
# Processed by: cddbd v1.5.1PL0 Copyright (c) Steve Scherf et al.
# Submitted via: CDex 1.51
#
DISCID=e809c712
DTITLE=Roy Buchanan - The Early Years
DYEAR=1989
DGENRE=Blues
TTITLE0=Twin Exhaust (Alt. Take)
TTITLE1=Mule Train Stomp
TTITLE2=Pretty Please
TTITLE3=Whiskers
TTITLE4=After Hours
TTITLE5=Mary Lou
TTITLE6=The Shuffle
TTITLE7=Potato Peeler
TTITLE8=The Jam Part 1
TTITLE9=So Lonely
TTITLE10=Loretta
TTITLE11=Am I The One
TTITLE12=Ruby Baby
TTITLE13=Braggin'
TTITLE14=The Jam Part 2
TTITLE15=Shake The Hand Of A Fool
TTITLE16=Trophy Run
TTITLE17=Twin Exhaust
EXTD=YEAR: 1989
EXTT0=
EXTT1=
EXTT2=
EXTT3=
EXTT4=
EXTT5=
EXTT6=
EXTT7=
EXTT8=
EXTT9=
EXTT10=
EXTT11=
EXTT12=
EXTT13=
EXTT14=
EXTT15=
EXTT16=
EXTT17=
PLAYORDER=
